<?xml version="1.0" encoding="utf-8" standalone="no"?>
<!DOCTYPE svg PUBLIC "-//W3C//DTD SVG 1.1//EN"
  "http://www.w3.org/Graphics/SVG/1.1/DTD/svg11.dtd">
<svg xmlns:xlink="http://www.w3.org/1999/xlink" width="518.4pt" height="363.6pt" viewBox="0 0 518.4 363.6" xmlns="http://www.w3.org/2000/svg" version="1.1">
 <metadata>
  <rdf:RDF xmlns:dc="http://purl.org/dc/elements/1.1/" xmlns:cc="http://creativecommons.org/ns#" xmlns:rdf="http://www.w3.org/1999/02/22-rdf-syntax-ns#">
   <cc:Work>
    <dc:type rdf:resource="http://purl.org/dc/dcmitype/StillImage"/>
    <dc:date>2026-08-18T16:01:12.996418</dc:date>
    <dc:format>image/svg+xml</dc:format>
    <dc:creator>
     <cc:Agent>
      <dc:title>Matplotlib v3.11.1, https://matplotlib.org/</dc:title>
     </cc:Agent>
    </dc:creator>
   </cc:Work>
  </rdf:RDF>
 </metadata>
 <defs>
  <style type="text/css">*{stroke-linejoin: round; stroke-linecap: butt}</style>
 </defs>
 <g id="figure_1">
  <g id="patch_1">
   <path d="M 0 363.6 
L 518.4 363.6 
L 518.4 0 
L 0 0 
z
" style="fill: #ffffff"/>
  </g>
  <g id="axes_1">
   <g id="patch_2">
    <path d="M 41.472 134.169608 
L 168.254609 134.169608 
L 168.254609 25.452 
L 41.472 25.452 
z
" style="fill: #ffffff"/>
   </g>
   <g id="patch_3">
    <path d="M 41.472 134.169608 
L 140.080696 134.169608 
L 140.080696 25.452 
L 41.472 25.452 
z
" clip-path="url(#p7a89c7d783)" style="fill: #e3f2f0; stroke: #e3f2f0; stroke-linejoin: miter"/>
   </g>
   <g id="patch_4">
    <path d="M 140.080696 134.169608 
L 168.254609 134.169608 
L 168.254609 25.452 
L 140.080696 25.452 
z
" clip-path="url(#p7a89c7d783)" style="fill: #faf1e6; stroke: #faf1e6; stroke-linejoin: miter"/>
   </g>
   <g id="matplotlib.axis_1">
    <g id="xtick_1">
     <g id="line2d_1">
      <path d="M 69.645913 134.169608 
L 69.645913 25.452 
" clip-path="url(#p7a89c7d783)" style="fill: none; stroke: #d9d9d9; stroke-opacity: 0.7; stroke-width: 0.45; stroke-linecap: square"/>
     </g>
     <g id="line2d_2">
      <defs>
       <path id="m94eb471ef6" d="M 0 0 
L 0 2.5 
" style="stroke: #000000; stroke-width: 0.7"/>
      </defs>
      <g>
       <use xlink:href="#m94eb471ef6" x="69.645913" y="134.169608" style="stroke: #000000; stroke-width: 0.7"/>
      </g>
     </g>
     <g id="text_1">
      <text style="font-size: 7px; font-family: 'Arial', 'DejaVu Sans', 'Liberation Sans', sans-serif; text-anchor: middle" x="69.645913" y="145.265799" transform="rotate(-0 69.645913 145.265799)">−2</text>
     </g>
    </g>
    <g id="xtick_2">
     <g id="line2d_3">
      <path d="M 104.863304 134.169608 
L 104.863304 25.452 
" clip-path="url(#p7a89c7d783)" style="fill: none; stroke: #d9d9d9; stroke-opacity: 0.7; stroke-width: 0.45; stroke-linecap: square"/>
     </g>
     <g id="line2d_4">
      <g>
       <use xlink:href="#m94eb471ef6" x="104.863304" y="134.169608" style="stroke: #000000; stroke-width: 0.7"/>
      </g>
     </g>
     <g id="text_2">
      <text style="font-size: 7px; font-family: 'Arial', 'DejaVu Sans', 'Liberation Sans', sans-serif; text-anchor: middle" x="104.863304" y="145.265799" transform="rotate(-0 104.863304 145.265799)">−1</text>
     </g>
    </g>
    <g id="xtick_3">
     <g id="line2d_5">
      <path d="M 140.080696 134.169608 
L 140.080696 25.452 
" clip-path="url(#p7a89c7d783)" style="fill: none; stroke: #d9d9d9; stroke-opacity: 0.7; stroke-width: 0.45; stroke-linecap: square"/>
     </g>
     <g id="line2d_6">
      <g>
       <use xlink:href="#m94eb471ef6" x="140.080696" y="134.169608" style="stroke: #000000; stroke-width: 0.7"/>
      </g>
     </g>
     <g id="text_3">
      <text style="font-size: 7px; font-family: 'Arial', 'DejaVu Sans', 'Liberation Sans', sans-serif; text-anchor: middle" x="140.080696" y="145.265799" transform="rotate(-0 140.080696 145.265799)">0</text>
     </g>
    </g>
    <g id="text_4">
     <text style="font-size: 7px; font-family: 'Arial', 'DejaVu Sans', 'Liberation Sans', sans-serif; text-anchor: middle" x="104.863304" y="155.835135" transform="rotate(-0 104.863304 155.835135)">Coverage minus random (micro-atm)</text>
    </g>
   </g>
   <g id="matplotlib.axis_2">
    <g id="ytick_1">
     <g id="line2d_7">
      <defs>
       <path id="m8bffc5b256" d="M 0 0 
L -2.5 0 
" style="stroke: #000000; stroke-width: 0.7"/>
      </defs>
      <g>
       <use xlink:href="#m8bffc5b256" x="41.472" y="47.835037" style="stroke: #000000; stroke-width: 0.7"/>
      </g>
     </g>
     <g id="text_5">
      <text style="font-size: 7px; font-family: 'Arial', 'DejaVu Sans', 'Liberation Sans', sans-serif; text-anchor: end" x="35.472" y="50.383133" transform="rotate(-0 35.472 50.383133)">2005</text>
     </g>
    </g>
    <g id="ytick_2">
     <g id="line2d_8">
      <g>
       <use xlink:href="#m8bffc5b256" x="41.472" y="79.810804" style="stroke: #000000; stroke-width: 0.7"/>
      </g>
     </g>
     <g id="text_6">
      <text style="font-size: 7px; font-family: 'Arial', 'DejaVu Sans', 'Liberation Sans', sans-serif; text-anchor: end" x="35.472" y="82.3589" transform="rotate(-0 35.472 82.3589)">2010</text>
     </g>
    </g>
    <g id="ytick_3">
     <g id="line2d_9">
      <g>
       <use xlink:href="#m8bffc5b256" x="41.472" y="111.786571" style="stroke: #000000; stroke-width: 0.7"/>
      </g>
     </g>
     <g id="text_7">
      <text style="font-size: 7px; font-family: 'Arial', 'DejaVu Sans', 'Liberation Sans', sans-serif; text-anchor: end" x="35.472" y="114.334667" transform="rotate(-0 35.472 114.334667)">2014</text>
     </g>
    </g>
   </g>
   <g id="line2d_10">
    <path d="M 140.080696 134.169608 
L 140.080696 25.452 
" clip-path="url(#p7a89c7d783)" style="fill: none; stroke-dasharray: 2.96,1.28; stroke-dashoffset: 0; stroke: #666666; stroke-width: 0.8"/>
   </g>
   <g id="LineCollection_1">
    <path d="M 56.389289 47.835037 
L 115.394291 47.835037 
" clip-path="url(#p7a89c7d783)" style="fill: none; stroke: #238b8e; stroke-width: 1.3"/>
    <path d="M 80.040395 79.810804 
L 122.225679 79.810804 
" clip-path="url(#p7a89c7d783)" style="fill: none; stroke: #238b8e; stroke-width: 1.3"/>
    <path d="M 97.367823 111.786571 
L 128.993803 111.786571 
" clip-path="url(#p7a89c7d783)" style="fill: none; stroke: #238b8e; stroke-width: 1.3"/>
   </g>
   <g id="patch_5">
    <path d="M 41.472 134.169608 
L 41.472 25.452 
" style="fill: none; stroke: #000000; stroke-width: 0.8; stroke-linejoin: miter; stroke-linecap: square"/>
   </g>
   <g id="patch_6">
    <path d="M 41.472 134.169608 
L 168.254609 134.169608 
" style="fill: none; stroke: #000000; stroke-width: 0.8; stroke-linejoin: miter; stroke-linecap: square"/>
   </g>
   <g id="PathCollection_1">
    <defs>
     <path id="m5eee8032e7" d="M 0 2.44949 
C 0.649612 2.44949 1.272706 2.191396 1.732051 1.732051 
C 2.191396 1.272706 2.44949 0.649612 2.44949 0 
C 2.44949 -0.649612 2.191396 -1.272706 1.732051 -1.732051 
C 1.272706 -2.191396 0.649612 -2.44949 0 -2.44949 
C -0.649612 -2.44949 -1.272706 -2.191396 -1.732051 -1.732051 
C -2.191396 -1.272706 -2.44949 -0.649612 -2.44949 0 
C -2.44949 0.649612 -2.191396 1.272706 -1.732051 1.732051 
C -1.272706 2.191396 -0.649612 2.44949 0 2.44949 
z
" style="stroke: #ffffff; stroke-width: 0.5"/>
    </defs>
    <g clip-path="url(#p7a89c7d783)">
     <use xlink:href="#m5eee8032e7" x="87.818744" y="47.835037" style="fill: #238b8e; stroke: #ffffff; stroke-width: 0.5"/>
     <use xlink:href="#m5eee8032e7" x="101.752951" y="79.810804" style="fill: #238b8e; stroke: #ffffff; stroke-width: 0.5"/>
     <use xlink:href="#m5eee8032e7" x="113.719731" y="111.786571" style="fill: #238b8e; stroke: #ffffff; stroke-width: 0.5"/>
    </g>
   </g>
   <g id="text_8">
    <text style="font-size: 5.6px; font-family: 'Arial', 'DejaVu Sans', 'Liberation Sans', sans-serif; text-anchor: start; fill: #238b8e" x="44.007652" y="129.820904" transform="rotate(-0 44.007652 129.820904)">coverage better</text>
   </g>
   <g id="text_9">
    <text style="font-size: 5.6px; font-family: 'Arial', 'DejaVu Sans', 'Liberation Sans', sans-serif; text-anchor: end; fill: #9a651f" x="165.718957" y="129.820904" transform="rotate(-0 165.718957 129.820904)">random better</text>
   </g>
   <g id="text_10">
    <text style="font-weight: 700; font-size: 9px; font-family: 'Arial', 'DejaVu Sans', 'Liberation Sans', sans-serif; text-anchor: start" x="31.329391" y="19.209253" transform="rotate(-0 31.329391 19.209253)">a</text>
   </g>
   <g id="text_11">
    <text style="font-weight: 700; font-size: 7.5px; font-family: 'Arial', 'DejaVu Sans', 'Liberation Sans', sans-serif; text-anchor: middle" x="104.863304" y="20.452" transform="rotate(-0 104.863304 20.452)">RMSE</text>
   </g>
  </g>
  <g id="axes_2">
   <g id="patch_7">
    <path d="M 211.360696 134.169608 
L 338.143304 134.169608 
L 338.143304 25.452 
L 211.360696 25.452 
z
" style="fill: #ffffff"/>
   </g>
   <g id="patch_8">
    <path d="M 211.360696 134.169608 
L 230.865712 134.169608 
L 230.865712 25.452 
L 211.360696 25.452 
z
" clip-path="url(#p229239fb7b)" style="fill: #e3f2f0; stroke: #e3f2f0; stroke-linejoin: miter"/>
   </g>
   <g id="patch_9">
    <path d="M 230.865712 134.169608 
L 338.143304 134.169608 
L 338.143304 25.452 
L 230.865712 25.452 
z
" clip-path="url(#p229239fb7b)" style="fill: #faf1e6; stroke: #faf1e6; stroke-linejoin: miter"/>
   </g>
   <g id="matplotlib.axis_3">
    <g id="xtick_4">
     <g id="line2d_11">
      <path d="M 230.865712 134.169608 
L 230.865712 25.452 
" clip-path="url(#p229239fb7b)" style="fill: none; stroke: #d9d9d9; stroke-opacity: 0.7; stroke-width: 0.45; stroke-linecap: square"/>
     </g>
     <g id="line2d_12">
      <g>
       <use xlink:href="#m94eb471ef6" x="230.865712" y="134.169608" style="stroke: #000000; stroke-width: 0.7"/>
      </g>
     </g>
     <g id="text_12">
      <text style="font-size: 7px; font-family: 'Arial', 'DejaVu Sans', 'Liberation Sans', sans-serif; text-anchor: middle" x="230.865712" y="145.265799" transform="rotate(-0 230.865712 145.265799)">0.00</text>
     </g>
    </g>
    <g id="xtick_5">
     <g id="line2d_13">
      <path d="M 255.246983 134.169608 
L 255.246983 25.452 
" clip-path="url(#p229239fb7b)" style="fill: none; stroke: #d9d9d9; stroke-opacity: 0.7; stroke-width: 0.45; stroke-linecap: square"/>
     </g>
     <g id="line2d_14">
      <g>
       <use xlink:href="#m94eb471ef6" x="255.246983" y="134.169608" style="stroke: #000000; stroke-width: 0.7"/>
      </g>
     </g>
     <g id="text_13">
      <text style="font-size: 7px; font-family: 'Arial', 'DejaVu Sans', 'Liberation Sans', sans-serif; text-anchor: middle" x="255.246983" y="145.265799" transform="rotate(-0 255.246983 145.265799)">0.25</text>
     </g>
    </g>
    <g id="xtick_6">
     <g id="line2d_15">
      <path d="M 279.628254 134.169608 
L 279.628254 25.452 
" clip-path="url(#p229239fb7b)" style="fill: none; stroke: #d9d9d9; stroke-opacity: 0.7; stroke-width: 0.45; stroke-linecap: square"/>
     </g>
     <g id="line2d_16">
      <g>
       <use xlink:href="#m94eb471ef6" x="279.628254" y="134.169608" style="stroke: #000000; stroke-width: 0.7"/>
      </g>
     </g>
     <g id="text_14">
      <text style="font-size: 7px; font-family: 'Arial', 'DejaVu Sans', 'Liberation Sans', sans-serif; text-anchor: middle" x="279.628254" y="145.265799" transform="rotate(-0 279.628254 145.265799)">0.50</text>
     </g>
    </g>
    <g id="xtick_7">
     <g id="line2d_17">
      <path d="M 304.009525 134.169608 
L 304.009525 25.452 
" clip-path="url(#p229239fb7b)" style="fill: none; stroke: #d9d9d9; stroke-opacity: 0.7; stroke-width: 0.45; stroke-linecap: square"/>
     </g>
     <g id="line2d_18">
      <g>
       <use xlink:href="#m94eb471ef6" x="304.009525" y="134.169608" style="stroke: #000000; stroke-width: 0.7"/>
      </g>
     </g>
     <g id="text_15">
      <text style="font-size: 7px; font-family: 'Arial', 'DejaVu Sans', 'Liberation Sans', sans-serif; text-anchor: middle" x="304.009525" y="145.265799" transform="rotate(-0 304.009525 145.265799)">0.75</text>
     </g>
    </g>
    <g id="xtick_8">
     <g id="line2d_19">
      <path d="M 328.390796 134.169608 
L 328.390796 25.452 
" clip-path="url(#p229239fb7b)" style="fill: none; stroke: #d9d9d9; stroke-opacity: 0.7; stroke-width: 0.45; stroke-linecap: square"/>
     </g>
     <g id="line2d_20">
      <g>
       <use xlink:href="#m94eb471ef6" x="328.390796" y="134.169608" style="stroke: #000000; stroke-width: 0.7"/>
      </g>
     </g>
     <g id="text_16">
      <text style="font-size: 7px; font-family: 'Arial', 'DejaVu Sans', 'Liberation Sans', sans-serif; text-anchor: middle" x="328.390796" y="145.265799" transform="rotate(-0 328.390796 145.265799)">1.00</text>
     </g>
    </g>
    <g id="text_17">
     <text style="font-size: 7px; font-family: 'Arial', 'DejaVu Sans', 'Liberation Sans', sans-serif; text-anchor: middle" x="274.752" y="155.835135" transform="rotate(-0 274.752 155.835135)">Coverage minus random (micro-atm)</text>
    </g>
   </g>
   <g id="matplotlib.axis_4">
    <g id="ytick_4">
     <g id="line2d_21">
      <g>
       <use xlink:href="#m8bffc5b256" x="211.360696" y="47.835037" style="stroke: #000000; stroke-width: 0.7"/>
      </g>
     </g>
     <g id="text_18">
      <text style="font-size: 7px; font-family: 'Arial', 'DejaVu Sans', 'Liberation Sans', sans-serif; text-anchor: end" x="205.360696" y="50.383133" transform="rotate(-0 205.360696 50.383133)">2005</text>
     </g>
    </g>
    <g id="ytick_5">
     <g id="line2d_22">
      <g>
       <use xlink:href="#m8bffc5b256" x="211.360696" y="79.810804" style="stroke: #000000; stroke-width: 0.7"/>
      </g>
     </g>
     <g id="text_19">
      <text style="font-size: 7px; font-family: 'Arial', 'DejaVu Sans', 'Liberation Sans', sans-serif; text-anchor: end" x="205.360696" y="82.3589" transform="rotate(-0 205.360696 82.3589)">2010</text>
     </g>
    </g>
    <g id="ytick_6">
     <g id="line2d_23">
      <g>
       <use xlink:href="#m8bffc5b256" x="211.360696" y="111.786571" style="stroke: #000000; stroke-width: 0.7"/>
      </g>
     </g>
     <g id="text_20">
      <text style="font-size: 7px; font-family: 'Arial', 'DejaVu Sans', 'Liberation Sans', sans-serif; text-anchor: end" x="205.360696" y="114.334667" transform="rotate(-0 205.360696 114.334667)">2014</text>
     </g>
    </g>
   </g>
   <g id="line2d_24">
    <path d="M 230.865712 134.169608 
L 230.865712 25.452 
" clip-path="url(#p229239fb7b)" style="fill: none; stroke-dasharray: 2.96,1.28; stroke-dashoffset: 0; stroke: #666666; stroke-width: 0.8"/>
   </g>
   <g id="LineCollection_2">
    <path d="M 282.033505 47.835037 
L 300.021683 47.835037 
" clip-path="url(#p229239fb7b)" style="fill: none; stroke: #238b8e; stroke-width: 1.3"/>
    <path d="M 294.774773 79.810804 
L 319.048267 79.810804 
" clip-path="url(#p229239fb7b)" style="fill: none; stroke: #238b8e; stroke-width: 1.3"/>
    <path d="M 280.465553 111.786571 
L 301.715811 111.786571 
" clip-path="url(#p229239fb7b)" style="fill: none; stroke: #238b8e; stroke-width: 1.3"/>
   </g>
   <g id="patch_10">
    <path d="M 211.360696 134.169608 
L 211.360696 25.452 
" style="fill: none; stroke: #000000; stroke-width: 0.8; stroke-linejoin: miter; stroke-linecap: square"/>
   </g>
   <g id="patch_11">
    <path d="M 211.360696 134.169608 
L 338.143304 134.169608 
" style="fill: none; stroke: #000000; stroke-width: 0.8; stroke-linejoin: miter; stroke-linecap: square"/>
   </g>
   <g id="PathCollection_2">
    <g clip-path="url(#p229239fb7b)">
     <use xlink:href="#m5eee8032e7" x="291.156256" y="47.835037" style="fill: #238b8e; stroke: #ffffff; stroke-width: 0.5"/>
     <use xlink:href="#m5eee8032e7" x="306.616341" y="79.810804" style="fill: #238b8e; stroke: #ffffff; stroke-width: 0.5"/>
     <use xlink:href="#m5eee8032e7" x="290.958423" y="111.786571" style="fill: #238b8e; stroke: #ffffff; stroke-width: 0.5"/>
    </g>
   </g>
   <g id="text_21">
    <text style="font-size: 5.6px; font-family: 'Arial', 'DejaVu Sans', 'Liberation Sans', sans-serif; text-anchor: start; fill: #238b8e" x="213.896348" y="129.820904" transform="rotate(-0 213.896348 129.820904)">coverage better</text>
   </g>
   <g id="text_22">
    <text style="font-size: 5.6px; font-family: 'Arial', 'DejaVu Sans', 'Liberation Sans', sans-serif; text-anchor: end; fill: #9a651f" x="335.607652" y="129.820904" transform="rotate(-0 335.607652 129.820904)">random better</text>
   </g>
   <g id="text_23">
    <text style="font-weight: 700; font-size: 9px; font-family: 'Arial', 'DejaVu Sans', 'Liberation Sans', sans-serif; text-anchor: start" x="201.218087" y="19.209253" transform="rotate(-0 201.218087 19.209253)">b</text>
   </g>
   <g id="text_24">
    <text style="font-weight: 700; font-size: 7.5px; font-family: 'Arial', 'DejaVu Sans', 'Liberation Sans', sans-serif; text-anchor: middle" x="274.752" y="20.452" transform="rotate(-0 274.752 20.452)">Median absolute error</text>
   </g>
  </g>
  <g id="axes_3">
   <g id="patch_12">
    <path d="M 381.249391 134.169608 
L 508.032 134.169608 
L 508.032 25.452 
L 381.249391 25.452 
z
" style="fill: #ffffff"/>
   </g>
   <g id="patch_13">
    <path d="M 381.249391 134.169608 
L 492.818087 134.169608 
L 492.818087 25.452 
L 381.249391 25.452 
z
" clip-path="url(#p94d51a3ffa)" style="fill: #e3f2f0; stroke: #e3f2f0; stroke-linejoin: miter"/>
   </g>
   <g id="patch_14">
    <path d="M 492.818087 134.169608 
L 508.032 134.169608 
L 508.032 25.452 
L 492.818087 25.452 
z
" clip-path="url(#p94d51a3ffa)" style="fill: #faf1e6; stroke: #faf1e6; stroke-linejoin: miter"/>
   </g>
   <g id="matplotlib.axis_5">
    <g id="xtick_9">
     <g id="line2d_25">
      <path d="M 391.392 134.169608 
L 391.392 25.452 
" clip-path="url(#p94d51a3ffa)" style="fill: none; stroke: #d9d9d9; stroke-opacity: 0.7; stroke-width: 0.45; stroke-linecap: square"/>
     </g>
     <g id="line2d_26">
      <g>
       <use xlink:href="#m94eb471ef6" x="391.392" y="134.169608" style="stroke: #000000; stroke-width: 0.7"/>
      </g>
     </g>
     <g id="text_25">
      <text style="font-size: 7px; font-family: 'Arial', 'DejaVu Sans', 'Liberation Sans', sans-serif; text-anchor: middle" x="391.392" y="145.265799" transform="rotate(-0 391.392 145.265799)">−10.0</text>
     </g>
    </g>
    <g id="xtick_10">
     <g id="line2d_27">
      <path d="M 416.748522 134.169608 
L 416.748522 25.452 
" clip-path="url(#p94d51a3ffa)" style="fill: none; stroke: #d9d9d9; stroke-opacity: 0.7; stroke-width: 0.45; stroke-linecap: square"/>
     </g>
     <g id="line2d_28">
      <g>
       <use xlink:href="#m94eb471ef6" x="416.748522" y="134.169608" style="stroke: #000000; stroke-width: 0.7"/>
      </g>
     </g>
     <g id="text_26">
      <text style="font-size: 7px; font-family: 'Arial', 'DejaVu Sans', 'Liberation Sans', sans-serif; text-anchor: middle" x="416.748522" y="145.265799" transform="rotate(-0 416.748522 145.265799)">−7.5</text>
     </g>
    </g>
    <g id="xtick_11">
     <g id="line2d_29">
      <path d="M 442.105043 134.169608 
L 442.105043 25.452 
" clip-path="url(#p94d51a3ffa)" style="fill: none; stroke: #d9d9d9; stroke-opacity: 0.7; stroke-width: 0.45; stroke-linecap: square"/>
     </g>
     <g id="line2d_30">
      <g>
       <use xlink:href="#m94eb471ef6" x="442.105043" y="134.169608" style="stroke: #000000; stroke-width: 0.7"/>
      </g>
     </g>
     <g id="text_27">
      <text style="font-size: 7px; font-family: 'Arial', 'DejaVu Sans', 'Liberation Sans', sans-serif; text-anchor: middle" x="442.105043" y="145.265799" transform="rotate(-0 442.105043 145.265799)">−5.0</text>
     </g>
    </g>
    <g id="xtick_12">
     <g id="line2d_31">
      <path d="M 467.461565 134.169608 
L 467.461565 25.452 
" clip-path="url(#p94d51a3ffa)" style="fill: none; stroke: #d9d9d9; stroke-opacity: 0.7; stroke-width: 0.45; stroke-linecap: square"/>
     </g>
     <g id="line2d_32">
      <g>
       <use xlink:href="#m94eb471ef6" x="467.461565" y="134.169608" style="stroke: #000000; stroke-width: 0.7"/>
      </g>
     </g>
     <g id="text_28">
      <text style="font-size: 7px; font-family: 'Arial', 'DejaVu Sans', 'Liberation Sans', sans-serif; text-anchor: middle" x="467.461565" y="145.265799" transform="rotate(-0 467.461565 145.265799)">−2.5</text>
     </g>
    </g>
    <g id="xtick_13">
     <g id="line2d_33">
      <path d="M 492.818087 134.169608 
L 492.818087 25.452 
" clip-path="url(#p94d51a3ffa)" style="fill: none; stroke: #d9d9d9; stroke-opacity: 0.7; stroke-width: 0.45; stroke-linecap: square"/>
     </g>
     <g id="line2d_34">
      <g>
       <use xlink:href="#m94eb471ef6" x="492.818087" y="134.169608" style="stroke: #000000; stroke-width: 0.7"/>
      </g>
     </g>
     <g id="text_29">
      <text style="font-size: 7px; font-family: 'Arial', 'DejaVu Sans', 'Liberation Sans', sans-serif; text-anchor: middle" x="492.818087" y="145.265799" transform="rotate(-0 492.818087 145.265799)">0.0</text>
     </g>
    </g>
    <g id="text_30">
     <text style="font-size: 7px; font-family: 'Arial', 'DejaVu Sans', 'Liberation Sans', sans-serif; text-anchor: middle" x="444.640696" y="155.835135" transform="rotate(-0 444.640696 155.835135)">Coverage minus random (micro-atm)</text>
    </g>
   </g>
   <g id="matplotlib.axis_6">
    <g id="ytick_7">
     <g id="line2d_35">
      <g>
       <use xlink:href="#m8bffc5b256" x="381.249391" y="47.835037" style="stroke: #000000; stroke-width: 0.7"/>
      </g>
     </g>
     <g id="text_31">
      <text style="font-size: 7px; font-family: 'Arial', 'DejaVu Sans', 'Liberation Sans', sans-serif; text-anchor: end" x="375.249391" y="50.383133" transform="rotate(-0 375.249391 50.383133)">2005</text>
     </g>
    </g>
    <g id="ytick_8">
     <g id="line2d_36">
      <g>
       <use xlink:href="#m8bffc5b256" x="381.249391" y="79.810804" style="stroke: #000000; stroke-width: 0.7"/>
      </g>
     </g>
     <g id="text_32">
      <text style="font-size: 7px; font-family: 'Arial', 'DejaVu Sans', 'Liberation Sans', sans-serif; text-anchor: end" x="375.249391" y="82.3589" transform="rotate(-0 375.249391 82.3589)">2010</text>
     </g>
    </g>
    <g id="ytick_9">
     <g id="line2d_37">
      <g>
       <use xlink:href="#m8bffc5b256" x="381.249391" y="111.786571" style="stroke: #000000; stroke-width: 0.7"/>
      </g>
     </g>
     <g id="text_33">
      <text style="font-size: 7px; font-family: 'Arial', 'DejaVu Sans', 'Liberation Sans', sans-serif; text-anchor: end" x="375.249391" y="114.334667" transform="rotate(-0 375.249391 114.334667)">2014</text>
     </g>
    </g>
   </g>
   <g id="line2d_38">
    <path d="M 492.818087 134.169608 
L 492.818087 25.452 
" clip-path="url(#p94d51a3ffa)" style="fill: none; stroke-dasharray: 2.96,1.28; stroke-dashoffset: 0; stroke: #666666; stroke-width: 0.8"/>
   </g>
   <g id="LineCollection_3">
    <path d="M 392.969897 47.835037 
L 473.02336 47.835037 
" clip-path="url(#p94d51a3ffa)" style="fill: none; stroke: #238b8e; stroke-width: 1.3"/>
    <path d="M 416.122622 79.810804 
L 481.527339 79.810804 
" clip-path="url(#p94d51a3ffa)" style="fill: none; stroke: #238b8e; stroke-width: 1.3"/>
    <path d="M 424.181618 111.786571 
L 473.779074 111.786571 
" clip-path="url(#p94d51a3ffa)" style="fill: none; stroke: #238b8e; stroke-width: 1.3"/>
   </g>
   <g id="patch_15">
    <path d="M 381.249391 134.169608 
L 381.249391 25.452 
" style="fill: none; stroke: #000000; stroke-width: 0.8; stroke-linejoin: miter; stroke-linecap: square"/>
   </g>
   <g id="patch_16">
    <path d="M 381.249391 134.169608 
L 508.032 134.169608 
" style="fill: none; stroke: #000000; stroke-width: 0.8; stroke-linejoin: miter; stroke-linecap: square"/>
   </g>
   <g id="PathCollection_3">
    <g clip-path="url(#p94d51a3ffa)">
     <use xlink:href="#m5eee8032e7" x="434.991924" y="47.835037" style="fill: #238b8e; stroke: #ffffff; stroke-width: 0.5"/>
     <use xlink:href="#m5eee8032e7" x="450.151887" y="79.810804" style="fill: #238b8e; stroke: #ffffff; stroke-width: 0.5"/>
     <use xlink:href="#m5eee8032e7" x="449.680409" y="111.786571" style="fill: #238b8e; stroke: #ffffff; stroke-width: 0.5"/>
    </g>
   </g>
   <g id="text_34">
    <text style="font-size: 5.6px; font-family: 'Arial', 'DejaVu Sans', 'Liberation Sans', sans-serif; text-anchor: start; fill: #238b8e" x="383.785043" y="129.820904" transform="rotate(-0 383.785043 129.820904)">coverage better</text>
   </g>
   <g id="text_35">
    <text style="font-size: 5.6px; font-family: 'Arial', 'DejaVu Sans', 'Liberation Sans', sans-serif; text-anchor: end; fill: #9a651f" x="505.496348" y="129.820904" transform="rotate(-0 505.496348 129.820904)">random better</text>
   </g>
   <g id="text_36">
    <text style="font-weight: 700; font-size: 9px; font-family: 'Arial', 'DejaVu Sans', 'Liberation Sans', sans-serif; text-anchor: start" x="371.106783" y="19.209253" transform="rotate(-0 371.106783 19.209253)">c</text>
   </g>
   <g id="text_37">
    <text style="font-weight: 700; font-size: 7.5px; font-family: 'Arial', 'DejaVu Sans', 'Liberation Sans', sans-serif; text-anchor: middle" x="444.640696" y="20.452" transform="rotate(-0 444.640696 20.452)">99th-percentile error</text>
   </g>
  </g>
  <g id="axes_4">
   <g id="patch_17">
    <path d="M 212.239375 319.968 
L 337.264625 319.968 
L 337.264625 194.942751 
L 212.239375 194.942751 
z
" style="fill: #ffffff"/>
   </g>
   <g id="matplotlib.axis_7">
    <g id="xtick_14">
     <g id="line2d_39">
      <path d="M 222.674242 319.968 
L 222.674242 194.942751 
" clip-path="url(#p684dd63420)" style="fill: none; stroke: #d9d9d9; stroke-opacity: 0.7; stroke-width: 0.45; stroke-linecap: square"/>
     </g>
     <g id="line2d_40">
      <defs>
       <path id="mf4e754ad48" d="M 0 0 
L 0 3.5 
" style="stroke: #000000; stroke-width: 0.8"/>
      </defs>
      <g>
       <use xlink:href="#mf4e754ad48" x="222.674242" y="319.968" style="stroke: #000000; stroke-width: 0.8"/>
      </g>
     </g>
     <g id="text_38">
      <text style="font-size: 7px; font-family: 'Arial', 'DejaVu Sans', 'Liberation Sans', sans-serif; text-anchor: middle" x="222.674242" y="332.064191" transform="rotate(-0 222.674242 332.064191)">−5</text>
     </g>
    </g>
    <g id="xtick_15">
     <g id="line2d_41">
      <path d="M 257.426767 319.968 
L 257.426767 194.942751 
" clip-path="url(#p684dd63420)" style="fill: none; stroke: #d9d9d9; stroke-opacity: 0.7; stroke-width: 0.45; stroke-linecap: square"/>
     </g>
     <g id="line2d_42">
      <g>
       <use xlink:href="#mf4e754ad48" x="257.426767" y="319.968" style="stroke: #000000; stroke-width: 0.8"/>
      </g>
     </g>
     <g id="text_39">
      <text style="font-size: 7px; font-family: 'Arial', 'DejaVu Sans', 'Liberation Sans', sans-serif; text-anchor: middle" x="257.426767" y="332.064191" transform="rotate(-0 257.426767 332.064191)">0</text>
     </g>
    </g>
    <g id="xtick_16">
     <g id="line2d_43">
      <path d="M 292.179291 319.968 
L 292.179291 194.942751 
" clip-path="url(#p684dd63420)" style="fill: none; stroke: #d9d9d9; stroke-opacity: 0.7; stroke-width: 0.45; stroke-linecap: square"/>
     </g>
     <g id="line2d_44">
      <g>
       <use xlink:href="#mf4e754ad48" x="292.179291" y="319.968" style="stroke: #000000; stroke-width: 0.8"/>
      </g>
     </g>
     <g id="text_40">
      <text style="font-size: 7px; font-family: 'Arial', 'DejaVu Sans', 'Liberation Sans', sans-serif; text-anchor: middle" x="292.179291" y="332.064191" transform="rotate(-0 292.179291 332.064191)">5</text>
     </g>
    </g>
    <g id="xtick_17">
     <g id="line2d_45">
      <path d="M 326.931816 319.968 
L 326.931816 194.942751 
" clip-path="url(#p684dd63420)" style="fill: none; stroke: #d9d9d9; stroke-opacity: 0.7; stroke-width: 0.45; stroke-linecap: square"/>
     </g>
     <g id="line2d_46">
      <g>
       <use xlink:href="#mf4e754ad48" x="326.931816" y="319.968" style="stroke: #000000; stroke-width: 0.8"/>
      </g>
     </g>
     <g id="text_41">
      <text style="font-size: 7px; font-family: 'Arial', 'DejaVu Sans', 'Liberation Sans', sans-serif; text-anchor: middle" x="326.931816" y="332.064191" transform="rotate(-0 326.931816 332.064191)">10</text>
     </g>
    </g>
    <g id="text_42">
     <text style="font-size: 7px; font-family: 'Arial', 'DejaVu Sans', 'Liberation Sans', sans-serif; text-anchor: middle" x="274.752" y="342.633527" transform="rotate(-0 274.752 342.633527)">Equal-weight effect (micro-atm)</text>
    </g>
   </g>
   <g id="matplotlib.axis_8">
    <g id="ytick_10">
     <g id="line2d_47">
      <path d="M 212.239375 309.533133 
L 337.264625 309.533133 
" clip-path="url(#p684dd63420)" style="fill: none; stroke: #d9d9d9; stroke-opacity: 0.7; stroke-width: 0.45; stroke-linecap: square"/>
     </g>
     <g id="line2d_48">
      <defs>
       <path id="m16c50ba2e1" d="M 0 0 
L -3.5 0 
" style="stroke: #000000; stroke-width: 0.8"/>
      </defs>
      <g>
       <use xlink:href="#m16c50ba2e1" x="212.239375" y="309.533133" style="stroke: #000000; stroke-width: 0.8"/>
      </g>
     </g>
     <g id="text_43">
      <text style="font-size: 7px; font-family: 'Arial', 'DejaVu Sans', 'Liberation Sans', sans-serif; text-anchor: end" x="205.239375" y="312.081229" transform="rotate(-0 205.239375 312.081229)">−5.0</text>
     </g>
    </g>
    <g id="ytick_11">
     <g id="line2d_49">
      <path d="M 212.239375 292.156871 
L 337.264625 292.156871 
" clip-path="url(#p684dd63420)" style="fill: none; stroke: #d9d9d9; stroke-opacity: 0.7; stroke-width: 0.45; stroke-linecap: square"/>
     </g>
     <g id="line2d_50">
      <g>
       <use xlink:href="#m16c50ba2e1" x="212.239375" y="292.156871" style="stroke: #000000; stroke-width: 0.8"/>
      </g>
     </g>
     <g id="text_44">
      <text style="font-size: 7px; font-family: 'Arial', 'DejaVu Sans', 'Liberation Sans', sans-serif; text-anchor: end" x="205.239375" y="294.704967" transform="rotate(-0 205.239375 294.704967)">−2.5</text>
     </g>
    </g>
    <g id="ytick_12">
     <g id="line2d_51">
      <path d="M 212.239375 274.780609 
L 337.264625 274.780609 
" clip-path="url(#p684dd63420)" style="fill: none; stroke: #d9d9d9; stroke-opacity: 0.7; stroke-width: 0.45; stroke-linecap: square"/>
     </g>
     <g id="line2d_52">
      <g>
       <use xlink:href="#m16c50ba2e1" x="212.239375" y="274.780609" style="stroke: #000000; stroke-width: 0.8"/>
      </g>
     </g>
     <g id="text_45">
      <text style="font-size: 7px; font-family: 'Arial', 'DejaVu Sans', 'Liberation Sans', sans-serif; text-anchor: end" x="205.239375" y="277.328704" transform="rotate(-0 205.239375 277.328704)">0.0</text>
     </g>
    </g>
    <g id="ytick_13">
     <g id="line2d_53">
      <path d="M 212.239375 257.404346 
L 337.264625 257.404346 
" clip-path="url(#p684dd63420)" style="fill: none; stroke: #d9d9d9; stroke-opacity: 0.7; stroke-width: 0.45; stroke-linecap: square"/>
     </g>
     <g id="line2d_54">
      <g>
       <use xlink:href="#m16c50ba2e1" x="212.239375" y="257.404346" style="stroke: #000000; stroke-width: 0.8"/>
      </g>
     </g>
     <g id="text_46">
      <text style="font-size: 7px; font-family: 'Arial', 'DejaVu Sans', 'Liberation Sans', sans-serif; text-anchor: end" x="205.239375" y="259.952442" transform="rotate(-0 205.239375 259.952442)">2.5</text>
     </g>
    </g>
    <g id="ytick_14">
     <g id="line2d_55">
      <path d="M 212.239375 240.028084 
L 337.264625 240.028084 
" clip-path="url(#p684dd63420)" style="fill: none; stroke: #d9d9d9; stroke-opacity: 0.7; stroke-width: 0.45; stroke-linecap: square"/>
     </g>
     <g id="line2d_56">
      <g>
       <use xlink:href="#m16c50ba2e1" x="212.239375" y="240.028084" style="stroke: #000000; stroke-width: 0.8"/>
      </g>
     </g>
     <g id="text_47">
      <text style="font-size: 7px; font-family: 'Arial', 'DejaVu Sans', 'Liberation Sans', sans-serif; text-anchor: end" x="205.239375" y="242.57618" transform="rotate(-0 205.239375 242.57618)">5.0</text>
     </g>
    </g>
    <g id="ytick_15">
     <g id="line2d_57">
      <path d="M 212.239375 222.651822 
L 337.264625 222.651822 
" clip-path="url(#p684dd63420)" style="fill: none; stroke: #d9d9d9; stroke-opacity: 0.7; stroke-width: 0.45; stroke-linecap: square"/>
     </g>
     <g id="line2d_58">
      <g>
       <use xlink:href="#m16c50ba2e1" x="212.239375" y="222.651822" style="stroke: #000000; stroke-width: 0.8"/>
      </g>
     </g>
     <g id="text_48">
      <text style="font-size: 7px; font-family: 'Arial', 'DejaVu Sans', 'Liberation Sans', sans-serif; text-anchor: end" x="205.239375" y="225.199917" transform="rotate(-0 205.239375 225.199917)">7.5</text>
     </g>
    </g>
    <g id="ytick_16">
     <g id="line2d_59">
      <path d="M 212.239375 205.275559 
L 337.264625 205.275559 
" clip-path="url(#p684dd63420)" style="fill: none; stroke: #d9d9d9; stroke-opacity: 0.7; stroke-width: 0.45; stroke-linecap: square"/>
     </g>
     <g id="line2d_60">
      <g>
       <use xlink:href="#m16c50ba2e1" x="212.239375" y="205.275559" style="stroke: #000000; stroke-width: 0.8"/>
      </g>
     </g>
     <g id="text_49">
      <text style="font-size: 7px; font-family: 'Arial', 'DejaVu Sans', 'Liberation Sans', sans-serif; text-anchor: end" x="205.239375" y="207.823655" transform="rotate(-0 205.239375 207.823655)">10.0</text>
     </g>
    </g>
    <g id="text_50">
     <text style="font-size: 7px; font-family: 'Arial', 'DejaVu Sans', 'Liberation Sans', sans-serif; text-anchor: middle" x="185.947657" y="257.455375" transform="rotate(-90 185.947657 257.455375)">Area-weighted effect (micro-atm)</text>
    </g>
   </g>
   <g id="line2d_61">
    <path d="M 212.239375 319.968 
L 337.264625 194.942751 
" clip-path="url(#p684dd63420)" style="fill: none; stroke-dasharray: 3.33,1.44; stroke-dashoffset: 0; stroke: #8b8b8b; stroke-width: 0.9"/>
   </g>
   <g id="patch_18">
    <path d="M 212.239375 319.968 
L 212.239375 194.942751 
" style="fill: none; stroke: #000000; stroke-width: 0.8; stroke-linejoin: miter; stroke-linecap: square"/>
   </g>
   <g id="patch_19">
    <path d="M 212.239375 319.968 
L 337.264625 319.968 
" style="fill: none; stroke: #000000; stroke-width: 0.8; stroke-linejoin: miter; stroke-linecap: square"/>
   </g>
   <g id="PathCollection_4">
    <defs>
     <path id="m7d11578639" d="M 0 2.738613 
C 0.726289 2.738613 1.422928 2.450055 1.936492 1.936492 
C 2.450055 1.422928 2.738613 0.726289 2.738613 0 
C 2.738613 -0.726289 2.450055 -1.422928 1.936492 -1.936492 
C 1.422928 -2.450055 0.726289 -2.738613 0 -2.738613 
C -0.726289 -2.738613 -1.422928 -2.450055 -1.936492 -1.936492 
C -2.450055 -1.422928 -2.738613 -0.726289 -2.738613 0 
C -2.738613 0.726289 -2.450055 1.422928 -1.936492 1.936492 
C -1.422928 2.450055 -0.726289 2.738613 0 2.738613 
z
" style="stroke: #ffffff; stroke-width: 0.5"/>
    </defs>
    <g clip-path="url(#p684dd63420)">
     <use xlink:href="#m7d11578639" x="319.703354" y="212.637825" style="fill: #d28e2c; stroke: #ffffff; stroke-width: 0.5"/>
    </g>
   </g>
   <g id="PathCollection_5">
    <defs>
     <path id="m66cdae08a5" d="M 0 2.738613 
C 0.726289 2.738613 1.422928 2.450055 1.936492 1.936492 
C 2.450055 1.422928 2.738613 0.726289 2.738613 0 
C 2.738613 -0.726289 2.450055 -1.422928 1.936492 -1.936492 
C 1.422928 -2.450055 0.726289 -2.738613 0 -2.738613 
C -0.726289 -2.738613 -1.422928 -2.450055 -1.936492 -1.936492 
C -2.450055 -1.422928 -2.738613 -0.726289 -2.738613 0 
C -2.738613 0.726289 -2.450055 1.422928 -1.936492 1.936492 
C -1.422928 2.450055 -0.726289 2.738613 0 2.738613 
z
" style="stroke: #ffffff; stroke-width: 0.5"/>
    </defs>
    <g clip-path="url(#p684dd63420)">
     <use xlink:href="#m66cdae08a5" x="261.723607" y="270.349683" style="fill: #8c6bb1; stroke: #ffffff; stroke-width: 0.5"/>
    </g>
   </g>
   <g id="PathCollection_6">
    <defs>
     <path id="m132f0ab419" d="M 0 2.738613 
C 0.726289 2.738613 1.422928 2.450055 1.936492 1.936492 
C 2.450055 1.422928 2.738613 0.726289 2.738613 0 
C 2.738613 -0.726289 2.450055 -1.422928 1.936492 -1.936492 
C 1.422928 -2.450055 0.726289 -2.738613 0 -2.738613 
C -0.726289 -2.738613 -1.422928 -2.450055 -1.936492 -1.936492 
C -2.450055 -1.422928 -2.738613 -0.726289 -2.738613 0 
C -2.738613 0.726289 -2.450055 1.422928 -1.936492 1.936492 
C -1.422928 2.450055 -0.726289 2.738613 0 2.738613 
z
" style="stroke: #ffffff; stroke-width: 0.5"/>
    </defs>
    <g clip-path="url(#p684dd63420)">
     <use xlink:href="#m132f0ab419" x="217.799779" y="314.348616" style="fill: #3775ba; stroke: #ffffff; stroke-width: 0.5"/>
    </g>
   </g>
   <g id="PathCollection_7">
    <defs>
     <path id="mebe9b1f529" d="M 0 2.738613 
C 0.726289 2.738613 1.422928 2.450055 1.936492 1.936492 
C 2.450055 1.422928 2.738613 0.726289 2.738613 0 
C 2.738613 -0.726289 2.450055 -1.422928 1.936492 -1.936492 
C 1.422928 -2.450055 0.726289 -2.738613 0 -2.738613 
C -0.726289 -2.738613 -1.422928 -2.450055 -1.936492 -1.936492 
C -2.450055 -1.422928 -2.738613 -0.726289 -2.738613 0 
C -2.738613 0.726289 -2.450055 1.422928 -1.936492 1.936492 
C -1.422928 2.450055 -0.726289 2.738613 0 2.738613 
z
" style="stroke: #ffffff; stroke-width: 0.5"/>
    </defs>
    <g clip-path="url(#p684dd63420)">
     <use xlink:href="#mebe9b1f529" x="247.112347" y="284.954678" style="fill: #238b8e; stroke: #ffffff; stroke-width: 0.5"/>
    </g>
   </g>
   <g id="PathCollection_8">
    <defs>
     <path id="md7338057ee" d="M -2.738613 2.738613 
L 2.738613 2.738613 
L 2.738613 -2.738613 
L -2.738613 -2.738613 
z
" style="stroke: #ffffff; stroke-width: 0.5"/>
    </defs>
    <g clip-path="url(#p684dd63420)">
     <use xlink:href="#md7338057ee" x="326.57232" y="206.397215" style="fill: #d28e2c; stroke: #ffffff; stroke-width: 0.5"/>
    </g>
   </g>
   <g id="PathCollection_9">
    <defs>
     <path id="m84b5fc6b1f" d="M -2.738613 2.738613 
L 2.738613 2.738613 
L 2.738613 -2.738613 
L -2.738613 -2.738613 
z
" style="stroke: #ffffff; stroke-width: 0.5"/>
    </defs>
    <g clip-path="url(#p684dd63420)">
     <use xlink:href="#m84b5fc6b1f" x="262.82543" y="269.589076" style="fill: #8c6bb1; stroke: #ffffff; stroke-width: 0.5"/>
    </g>
   </g>
   <g id="PathCollection_10">
    <defs>
     <path id="mfde3c6c1d9" d="M -2.738613 2.738613 
L 2.738613 2.738613 
L 2.738613 -2.738613 
L -2.738613 -2.738613 
z
" style="stroke: #ffffff; stroke-width: 0.5"/>
    </defs>
    <g clip-path="url(#p684dd63420)">
     <use xlink:href="#mfde3c6c1d9" x="228.188566" y="309.706789" style="fill: #3775ba; stroke: #ffffff; stroke-width: 0.5"/>
    </g>
   </g>
   <g id="PathCollection_11">
    <defs>
     <path id="md09dc5db2a" d="M -2.738613 2.738613 
L 2.738613 2.738613 
L 2.738613 -2.738613 
L -2.738613 -2.738613 
z
" style="stroke: #ffffff; stroke-width: 0.5"/>
    </defs>
    <g clip-path="url(#p684dd63420)">
     <use xlink:href="#md09dc5db2a" x="249.862403" y="282.794805" style="fill: #238b8e; stroke: #ffffff; stroke-width: 0.5"/>
    </g>
   </g>
   <g id="PathCollection_12">
    <defs>
     <path id="m4df83a7f1f" d="M 0 -2.738613 
L -2.738613 2.738613 
L 2.738613 2.738613 
z
" style="stroke: #ffffff; stroke-width: 0.5"/>
    </defs>
    <g clip-path="url(#p684dd63420)">
     <use xlink:href="#m4df83a7f1f" x="331.704221" y="200.890166" style="fill: #d28e2c; stroke: #ffffff; stroke-width: 0.5"/>
    </g>
   </g>
   <g id="PathCollection_13">
    <defs>
     <path id="m725b505cf7" d="M 0 -2.738613 
L -2.738613 2.738613 
L 2.738613 2.738613 
z
" style="stroke: #ffffff; stroke-width: 0.5"/>
    </defs>
    <g clip-path="url(#p684dd63420)">
     <use xlink:href="#m725b505cf7" x="261.709508" y="270.653481" style="fill: #8c6bb1; stroke: #ffffff; stroke-width: 0.5"/>
    </g>
   </g>
   <g id="PathCollection_14">
    <defs>
     <path id="m83af3b3599" d="M 0 -2.738613 
L -2.738613 2.738613 
L 2.738613 2.738613 
z
" style="stroke: #ffffff; stroke-width: 0.5"/>
    </defs>
    <g clip-path="url(#p684dd63420)">
     <use xlink:href="#m83af3b3599" x="227.865472" y="304.420845" style="fill: #3775ba; stroke: #ffffff; stroke-width: 0.5"/>
    </g>
   </g>
   <g id="PathCollection_15">
    <defs>
     <path id="mf994698395" d="M 0 -2.738613 
L -2.738613 2.738613 
L 2.738613 2.738613 
z
" style="stroke: #ffffff; stroke-width: 0.5"/>
    </defs>
    <g clip-path="url(#p684dd63420)">
     <use xlink:href="#mf994698395" x="252.224166" y="279.591061" style="fill: #238b8e; stroke: #ffffff; stroke-width: 0.5"/>
    </g>
   </g>
   <g id="text_51">
    <text style="font-weight: 700; font-size: 9px; font-family: 'Arial', 'DejaVu Sans', 'Liberation Sans', sans-serif; text-anchor: start" x="197.236346" y="183.046688" transform="rotate(-0 197.236346 183.046688)">d</text>
   </g>
   <g id="text_52">
    <text style="font-weight: 700; font-size: 7.5px; font-family: 'Arial', 'DejaVu Sans', 'Liberation Sans', sans-serif; text-anchor: middle" x="274.752" y="189.942751" transform="rotate(-0 274.752 189.942751)">Native-area weighting preserves all prespecified effects</text>
   </g>
   <g id="legend_1">
    <g id="line2d_62">
     <defs>
      <path id="me01fad217b" d="M 0 2.5 
C 0.663008 2.5 1.29895 2.236584 1.767767 1.767767 
C 2.236584 1.29895 2.5 0.663008 2.5 0 
C 2.5 -0.663008 2.236584 -1.29895 1.767767 -1.767767 
C 1.29895 -2.236584 0.663008 -2.5 0 -2.5 
C -0.663008 -2.5 -1.29895 -2.236584 -1.767767 -1.767767 
C -2.236584 -1.29895 -2.5 -0.663008 -2.5 0 
C -2.5 0.663008 -2.236584 1.29895 -1.767767 1.767767 
C -1.29895 2.236584 -0.663008 2.5 0 2.5 
z
" style="stroke: #000000; stroke-opacity: 0"/>
     </defs>
     <g>
      <use xlink:href="#me01fad217b" x="351.16513" y="228.315356" style="fill: #d28e2c; stroke: #000000; stroke-opacity: 0"/>
     </g>
    </g>
    <g id="text_53">
     <text style="font-size: 6px; font-family: 'Arial', 'DejaVu Sans', 'Liberation Sans', sans-serif; text-anchor: start" x="360.16513" y="230.415356" transform="rotate(-0 360.16513 230.415356)">Historical - random RMSE</text>
    </g>
    <g id="line2d_63">
     <defs>
      <path id="m36ea99dd13" d="M 0 2.5 
C 0.663008 2.5 1.29895 2.236584 1.767767 1.767767 
C 2.236584 1.29895 2.5 0.663008 2.5 0 
C 2.5 -0.663008 2.236584 -1.29895 1.767767 -1.767767 
C 1.29895 -2.236584 0.663008 -2.5 0 -2.5 
C -0.663008 -2.5 -1.29895 -2.236584 -1.767767 -1.767767 
C -2.236584 -1.29895 -2.5 -0.663008 -2.5 0 
C -2.5 0.663008 -2.236584 1.29895 -1.767767 1.767767 
C -1.29895 2.236584 -0.663008 2.5 0 2.5 
z
" style="stroke: #000000; stroke-opacity: 0"/>
     </defs>
     <g>
      <use xlink:href="#m36ea99dd13" x="351.16513" y="237.846215" style="fill: #238b8e; stroke: #000000; stroke-opacity: 0"/>
     </g>
    </g>
    <g id="text_54">
     <text style="font-size: 6px; font-family: 'Arial', 'DejaVu Sans', 'Liberation Sans', sans-serif; text-anchor: start" x="360.16513" y="239.946215" transform="rotate(-0 360.16513 239.946215)">Coverage - random RMSE</text>
    </g>
    <g id="line2d_64">
     <defs>
      <path id="m25418b05f7" d="M 0 2.5 
C 0.663008 2.5 1.29895 2.236584 1.767767 1.767767 
C 2.236584 1.29895 2.5 0.663008 2.5 0 
C 2.5 -0.663008 2.236584 -1.29895 1.767767 -1.767767 
C 1.29895 -2.236584 0.663008 -2.5 0 -2.5 
C -0.663008 -2.5 -1.29895 -2.236584 -1.767767 -1.767767 
C -2.236584 -1.29895 -2.5 -0.663008 -2.5 0 
C -2.5 0.663008 -2.236584 1.29895 -1.767767 1.767767 
C -1.29895 2.236584 -0.663008 2.5 0 2.5 
z
" style="stroke: #000000; stroke-opacity: 0"/>
     </defs>
     <g>
      <use xlink:href="#m25418b05f7" x="351.16513" y="247.377192" style="fill: #8c6bb1; stroke: #000000; stroke-opacity: 0"/>
     </g>
    </g>
    <g id="text_55">
     <text style="font-size: 6px; font-family: 'Arial', 'DejaVu Sans', 'Liberation Sans', sans-serif; text-anchor: start" x="360.16513" y="249.477192" transform="rotate(-0 360.16513 249.477192)">Coverage - random median</text>
    </g>
    <g id="line2d_65">
     <defs>
      <path id="m4a000bce7e" d="M 0 2.5 
C 0.663008 2.5 1.29895 2.236584 1.767767 1.767767 
C 2.236584 1.29895 2.5 0.663008 2.5 0 
C 2.5 -0.663008 2.236584 -1.29895 1.767767 -1.767767 
C 1.29895 -2.236584 0.663008 -2.5 0 -2.5 
C -0.663008 -2.5 -1.29895 -2.236584 -1.767767 -1.767767 
C -2.236584 -1.29895 -2.5 -0.663008 -2.5 0 
C -2.5 0.663008 -2.236584 1.29895 -1.767767 1.767767 
C -1.29895 2.236584 -0.663008 2.5 0 2.5 
z
" style="stroke: #000000; stroke-opacity: 0"/>
     </defs>
     <g>
      <use xlink:href="#m4a000bce7e" x="351.16513" y="256.908168" style="fill: #3775ba; stroke: #000000; stroke-opacity: 0"/>
     </g>
    </g>
    <g id="text_56">
     <text style="font-size: 6px; font-family: 'Arial', 'DejaVu Sans', 'Liberation Sans', sans-serif; text-anchor: start" x="360.16513" y="259.008168" transform="rotate(-0 360.16513 259.008168)">Coverage - random p99</text>
    </g>
    <g id="line2d_66">
     <defs>
      <path id="ma4b101d6dd" d="M 0 2.5 
C 0.663008 2.5 1.29895 2.236584 1.767767 1.767767 
C 2.236584 1.29895 2.5 0.663008 2.5 0 
C 2.5 -0.663008 2.236584 -1.29895 1.767767 -1.767767 
C 1.29895 -2.236584 0.663008 -2.5 0 -2.5 
C -0.663008 -2.5 -1.29895 -2.236584 -1.767767 -1.767767 
C -2.236584 -1.29895 -2.5 -0.663008 -2.5 0 
C -2.5 0.663008 -2.236584 1.29895 -1.767767 1.767767 
C -1.29895 2.236584 -0.663008 2.5 0 2.5 
z
" style="stroke: #000000; stroke-opacity: 0"/>
     </defs>
     <g>
      <use xlink:href="#ma4b101d6dd" x="351.16513" y="266.439145" style="fill: #707070; stroke: #000000; stroke-opacity: 0"/>
     </g>
    </g>
    <g id="text_57">
     <text style="font-size: 6px; font-family: 'Arial', 'DejaVu Sans', 'Liberation Sans', sans-serif; text-anchor: start" x="360.16513" y="268.539145" transform="rotate(-0 360.16513 268.539145)">2005</text>
    </g>
    <g id="line2d_67">
     <defs>
      <path id="m42bd9dbf19" d="M -2.5 2.5 
L 2.5 2.5 
L 2.5 -2.5 
L -2.5 -2.5 
z
" style="stroke: #000000; stroke-opacity: 0; stroke-linejoin: miter"/>
     </defs>
     <g>
      <use xlink:href="#m42bd9dbf19" x="351.16513" y="275.970004" style="fill: #707070; stroke: #000000; stroke-opacity: 0; stroke-linejoin: miter"/>
     </g>
    </g>
    <g id="text_58">
     <text style="font-size: 6px; font-family: 'Arial', 'DejaVu Sans', 'Liberation Sans', sans-serif; text-anchor: start" x="360.16513" y="278.070004" transform="rotate(-0 360.16513 278.070004)">2010</text>
    </g>
    <g id="line2d_68">
     <defs>
      <path id="ma59813ff68" d="M 0 -2.5 
L -2.5 2.5 
L 2.5 2.5 
z
" style="stroke: #000000; stroke-opacity: 0; stroke-linejoin: miter"/>
     </defs>
     <g>
      <use xlink:href="#ma59813ff68" x="351.16513" y="285.500864" style="fill: #707070; stroke: #000000; stroke-opacity: 0; stroke-linejoin: miter"/>
     </g>
    </g>
    <g id="text_59">
     <text style="font-size: 6px; font-family: 'Arial', 'DejaVu Sans', 'Liberation Sans', sans-serif; text-anchor: start" x="360.16513" y="287.600864" transform="rotate(-0 360.16513 287.600864)">2014</text>
    </g>
   </g>
  </g>
  <g id="text_60">
   <text style="font-size: 6px; font-family: 'Arial', 'DejaVu Sans', 'Liberation Sans', sans-serif; text-anchor: end; fill: #5f5f5f" x="508.032" y="354.51" transform="rotate(-0 508.032 354.51)">Points: paired-seed mean; intervals: 95% percentile bootstrap; n = 20 seeds per year</text>
  </g>
 </g>
 <defs>
  <clipPath id="p7a89c7d783">
   <rect x="41.472" y="25.452" width="126.782609" height="108.717608"/>
  </clipPath>
  <clipPath id="p229239fb7b">
   <rect x="211.360696" y="25.452" width="126.782609" height="108.717608"/>
  </clipPath>
  <clipPath id="p94d51a3ffa">
   <rect x="381.249391" y="25.452" width="126.782609" height="108.717608"/>
  </clipPath>
  <clipPath id="p684dd63420">
   <rect x="212.239375" y="194.942751" width="125.025249" height="125.025249"/>
  </clipPath>
 </defs>
</svg>
